<svg viewBox="0 0 1000 800" xmlns="http://www.w3.org/2000/svg">
  <!-- Background -->
  <rect x="0" y="0" width="1000" height="800" fill="#f8f9fa" />
  <text x="500" y="40" font-family="Arial" font-size="24" text-anchor="middle" font-weight="bold">Arquitetura do SoC Alchemist RV64</text>
  
  <!-- Main SoC outline -->
  <rect x="50" y="70" width="900" height="700" rx="20" ry="20" fill="#e6e6e6" stroke="#333" stroke-width="2" />
  
  <!-- CPU Cluster -->
  <g>
    <rect x="80" y="100" width="440" height="300" rx="10" ry="10" fill="#d1e7f5" stroke="#0066cc" stroke-width="2" />
    <text x="300" y="125" font-family="Arial" font-size="18" text-anchor="middle" font-weight="bold">CPU Cluster</text>
    
    <!-- Big Cores - Supernova -->
    <rect x="100" y="140" width="400" height="120" rx="5" ry="5" fill="#99ccff" stroke="#0066cc" stroke-width="1" />
    <text x="300" y="160" font-family="Arial" font-size="16" text-anchor="middle">4x Supernova Big Cores (2.8-3.5 GHz)</text>
    <text x="300" y="180" font-family="Arial" font-size="12" text-anchor="middle">RV64GC + B + V Extensions</text>
    <text x="300" y="200" font-family="Arial" font-size="12" text-anchor="middle">12-stage Pipeline, Out-of-Order Execution</text>
    <text x="300" y="220" font-family="Arial" font-size="12" text-anchor="middle">L1: 64KB I + 64KB D (per core), L2: 1.5MB (per core)</text>
    <text x="300" y="240" font-family="Arial" font-size="12" text-anchor="middle">5 ALUs, 3 FPUs, 2 LSUs, 1 Vector Unit</text>
    
    <!-- Little Cores - Nebula -->
    <rect x="100" y="270" width="400" height="110" rx="5" ry="5" fill="#b3d9ff" stroke="#0066cc" stroke-width="1" />
    <text x="300" y="290" font-family="Arial" font-size="16" text-anchor="middle">6x Nebula Little Cores (1.8 GHz)</text>
    <text x="300" y="310" font-family="Arial" font-size="12" text-anchor="middle">RV64I</text>
    <text x="300" y="330" font-family="Arial" font-size="12" text-anchor="middle">8-stage Pipeline, In-Order Execution</text>
    <text x="300" y="350" font-family="Arial" font-size="12" text-anchor="middle">2 ALUs, 1 LSU, L1: 32KB I + 32KB D, L2: 512KB (shared)</text>
  </g>
  
  <!-- GPU - Krypton -->
  <g>
    <rect x="80" y="410" width="440" height="160" rx="10" ry="10" fill="#d8f0cc" stroke="#339933" stroke-width="2" />
    <text x="300" y="430" font-family="Arial" font-size="18" text-anchor="middle" font-weight="bold">GPU - Krypton (1.3 GHz)</text>
    <text x="300" y="450" font-family="Arial" font-size="12" text-anchor="middle">RISC-V based with proprietary graphics extensions</text>
    <text x="300" y="470" font-family="Arial" font-size="12" text-anchor="middle">10 Compute Units, 1280 Shader ALUs</text>
    <text x="300" y="490" font-family="Arial" font-size="12" text-anchor="middle">80 Texture Units, 20 Rasterization Units</text>
    <text x="300" y="510" font-family="Arial" font-size="12" text-anchor="middle">Hardware Ray Tracing (2nd gen)</text>
    <text x="300" y="530" font-family="Arial" font-size="12" text-anchor="middle">6GB LPDDR5X, Vulkan 1.3, OpenGL ES 3.2, OpenCL 3.0</text>
    <text x="300" y="550" font-family="Arial" font-size="12" text-anchor="middle">Performance Target: > Adreno 830</text>
  </g>
  
  <!-- Memory Subsystem -->
  <g>
    <rect x="80" y="580" width="440" height="70" rx="10" ry="10" fill="#ffeeba" stroke="#ff9900" stroke-width="2" />
    <text x="300" y="600" font-family="Arial" font-size="16" text-anchor="middle" font-weight="bold">Memory Subsystem</text>
    <text x="300" y="620" font-family="Arial" font-size="12" text-anchor="middle">L3 Cache: 12MB shared</text>
    <text x="300" y="640" font-family="Arial" font-size="12" text-anchor="middle">LPDDR5X/DDR5 Controller, Up to 60 GB/s, Max 64GB</text>
  </g>
  
  <!-- Accelerators -->
  <g>
    <rect x="530" y="100" width="400" height="220" rx="10" ry="10" fill="#f5d6eb" stroke="#cc3399" stroke-width="2" />
    <text x="730" y="125" font-family="Arial" font-size="18" text-anchor="middle" font-weight="bold">Dedicated Accelerators</text>
    
    <rect x="550" y="140" width="170" height="50" rx="5" ry="5" fill="#e6b3d9" stroke="#cc3399" stroke-width="1" />
    <text x="635" y="168" font-family="Arial" font-size="14" text-anchor="middle">NPU (20 TOPS)</text>
    
    <rect x="740" y="140" width="170" height="50" rx="5" ry="5" fill="#e6b3d9" stroke="#cc3399" stroke-width="1" />
    <text x="825" y="168" font-family="Arial" font-size="14" text-anchor="middle">ISP (4K60 HDR)</text>
    
    <rect x="550" y="200" width="170" height="50" rx="5" ry="5" fill="#e6b3d9" stroke="#cc3399" stroke-width="1" />
    <text x="635" y="228" font-family="Arial" font-size="14" text-anchor="middle">VPU (8K60/4K240)</text>
    
    <rect x="740" y="200" width="170" height="50" rx="5" ry="5" fill="#e6b3d9" stroke="#cc3399" stroke-width="1" />
    <text x="825" y="228" font-family="Arial" font-size="14" text-anchor="middle">DSP (Audio/Sensors)</text>
    
    <rect x="645" y="260" width="170" height="50" rx="5" ry="5" fill="#e6b3d9" stroke="#cc3399" stroke-width="1" />
    <text x="730" y="288" font-family="Arial" font-size="14" text-anchor="middle">Crypto Engine</text>
  </g>
  
  <!-- Connectivity -->
  <g>
    <rect x="530" y="330" width="400" height="160" rx="10" ry="10" fill="#d6eaf5" stroke="#3399cc" stroke-width="2" />
    <text x="730" y="355" font-family="Arial" font-size="18" text-anchor="middle" font-weight="bold">Connectivity</text>
    
    <rect x="550" y="370" width="170" height="40" rx="5" ry="5" fill="#b3d9ff" stroke="#3399cc" stroke-width="1" />
    <text x="635" y="395" font-family="Arial" font-size="14" text-anchor="middle">PCIe 5.0 (8 lanes)</text>
    
    <rect x="740" y="370" width="170" height="40" rx="5" ry="5" fill="#b3d9ff" stroke="#3399cc" stroke-width="1" />
    <text x="825" y="395" font-family="Arial" font-size="14" text-anchor="middle">USB 4.0 (40Gbps)</text>
    
    <rect x="550" y="420" width="170" height="40" rx="5" ry="5" fill="#b3d9ff" stroke="#3399cc" stroke-width="1" />
    <text x="635" y="445" font-family="Arial" font-size="14" text-anchor="middle">10GbE Ethernet</text>
    
    <rect x="740" y="420" width="170" height="40" rx="5" ry="5" fill="#b3d9ff" stroke="#3399cc" stroke-width="1" />
    <text x="825" y="445" font-family="Arial" font-size="14" text-anchor="middle">Wi-Fi 7/BT 5.3</text>
    
    <rect x="645" y="470" width="170" height="40" rx="5" ry="5" fill="#b3d9ff" stroke="#3399cc" stroke-width="1" />
    <text x="730" y="495" font-family="Arial" font-size="14" text-anchor="middle">SPI, I2C, UART, GPIO</text>
  </g>
  
  <!-- Architecture Features -->
  <g>
    <rect x="530" y="500" width="400" height="230" rx="10" ry="10" fill="#e8daef" stroke="#663399" stroke-width="2" />
    <text x="730" y="525" font-family="Arial" font-size="18" text-anchor="middle" font-weight="bold">Architecture Features</text>
    
    <!-- Interconnect -->
    <rect x="550" y="540" width="170" height="70" rx="5" ry="5" fill="#d5b8e7" stroke="#663399" stroke-width="1" />
    <text x="635" y="560" font-family="Arial" font-size="14" text-anchor="middle">Interconnect</text>
    <text x="635" y="580" font-family="Arial" font-size="12" text-anchor="middle">NoC Mesh Topology</text>
    <text x="635" y="598" font-family="Arial" font-size="12" text-anchor="middle">1 TB/s, MOESI Protocol</text>
    
    <!-- Security -->
    <rect x="740" y="540" width="170" height="70" rx="5" ry="5" fill="#d5b8e7" stroke="#663399" stroke-width="1" />
    <text x="825" y="560" font-family="Arial" font-size="14" text-anchor="middle">Security</text>
    <text x="825" y="580" font-family="Arial" font-size="12" text-anchor="middle">RV PMP, TEE</text>
    <text x="825" y="598" font-family="Arial" font-size="12" text-anchor="middle">Secure Boot, Trust Zone</text>
    
    <!-- Power Management -->
    <rect x="550" y="620" width="170" height="70" rx="5" ry="5" fill="#d5b8e7" stroke="#663399" stroke-width="1" />
    <text x="635" y="640" font-family="Arial" font-size="14" text-anchor="middle">Power Management</text>
    <text x="635" y="660" font-family="Arial" font-size="12" text-anchor="middle">DVFS, C0-C10 States</text>
    <text x="635" y="678" font-family="Arial" font-size="12" text-anchor="middle">Power Gating, 3.8 DMIPS/mW</text>
    
    <!-- Virtualization -->
    <rect x="740" y="620" width="170" height="70" rx="5" ry="5" fill="#d5b8e7" stroke="#663399" stroke-width="1" />
    <text x="825" y="640" font-family="Arial" font-size="14" text-anchor="middle">Virtualization</text>
    <text x="825" y="660" font-family="Arial" font-size="12" text-anchor="middle">H Extension, MMU</text>
    <text x="825" y="678" font-family="Arial" font-size="12" text-anchor="middle">IOMMU, Nested VMs</text>
  </g>
  
  <!-- NoC Connections (simplified representation) -->
  <path d="M 300 400 L 300 410 M 300 570 L 300 580 M 730 320 L 730 330 M 730 490 L 730 500" stroke="#666" stroke-width="2" stroke-dasharray="5,3" />
  
  <!-- Main NoC Bus -->
  <rect x="80" y="660" width="850" height="30" rx="5" ry="5" fill="#c9c9c9" stroke="#333" stroke-width="2" />
  <text x="500" y="680" font-family="Arial" font-size="14" text-anchor="middle">Network-on-Chip (NoC) - 1 TB/s Internal Bandwidth</text>
  
  <!-- Connecting components to NoC -->
  <path d="M 300 650 L 300 660 M 500 675 L 530 600 M 500 675 L 300 580 M 500 675 L 730 700" stroke="#666" stroke-width="2" stroke-dasharray="5,3" />
</svg>
